<?xml version="1.0" encoding="UTF-8" standalone="no"?>
<!DOCTYPE svg PUBLIC "-//W3C//DTD SVG 1.1//EN"
 "http://www.w3.org/Graphics/SVG/1.1/DTD/svg11.dtd">
<!-- Generated by graphviz version 2.40.1 (20161225.0304)
 -->
<!-- Title: snakemake_dag Pages: 1 -->
<svg width="466pt" height="260pt"
 viewBox="0.00 0.00 466.00 260.00" xmlns="http://www.w3.org/2000/svg" xmlns:xlink="http://www.w3.org/1999/xlink">
<g id="graph0" class="graph" transform="scale(1 1) rotate(0) translate(4 256)">
<title>snakemake_dag</title>
<polygon fill="#ffffff" stroke="transparent" points="-4,4 -4,-256 462,-256 462,4 -4,4"/>
<!-- 0 -->
<g id="node1" class="node">
<title>0</title>
<path fill="none" stroke="#59d856" stroke-width="2" d="M243.5,-36C243.5,-36 213.5,-36 213.5,-36 207.5,-36 201.5,-30 201.5,-24 201.5,-24 201.5,-12 201.5,-12 201.5,-6 207.5,0 213.5,0 213.5,0 243.5,0 243.5,0 249.5,0 255.5,-6 255.5,-12 255.5,-12 255.5,-24 255.5,-24 255.5,-30 249.5,-36 243.5,-36"/>
<text text-anchor="middle" x="228.5" y="-15.5" font-family="sans" font-size="10.00" fill="#000000">all</text>
</g>
<!-- 1 -->
<g id="node2" class="node">
<title>1</title>
<path fill="none" stroke="#d6d856" stroke-width="2" d="M89,-108C89,-108 12,-108 12,-108 6,-108 0,-102 0,-96 0,-96 0,-84 0,-84 0,-78 6,-72 12,-72 12,-72 89,-72 89,-72 95,-72 101,-78 101,-84 101,-84 101,-96 101,-96 101,-102 95,-108 89,-108"/>
<text text-anchor="middle" x="50.5" y="-87.5" font-family="sans" font-size="10.00" fill="#000000">get_context_data</text>
</g>
<!-- 1&#45;&gt;0 -->
<g id="edge1" class="edge">
<title>1&#45;&gt;0</title>
<path fill="none" stroke="#c0c0c0" stroke-width="2" d="M95.4169,-71.8314C125.2664,-59.7574 163.9667,-44.1034 191.9325,-32.7913"/>
<polygon fill="#c0c0c0" stroke="#c0c0c0" stroke-width="2" points="193.3867,-35.9787 201.3446,-28.9842 190.7618,-29.4895 193.3867,-35.9787"/>
</g>
<!-- 2 -->
<g id="node3" class="node">
<title>2</title>
<path fill="none" stroke="#d6d856" stroke-width="2" d="M208,-108C208,-108 131,-108 131,-108 125,-108 119,-102 119,-96 119,-96 119,-84 119,-84 119,-78 125,-72 131,-72 131,-72 208,-72 208,-72 214,-72 220,-78 220,-84 220,-84 220,-96 220,-96 220,-102 214,-108 208,-108"/>
<text text-anchor="middle" x="169.5" y="-87.5" font-family="sans" font-size="10.00" fill="#000000">get_context_data</text>
</g>
<!-- 2&#45;&gt;0 -->
<g id="edge2" class="edge">
<title>2&#45;&gt;0</title>
<path fill="none" stroke="#c0c0c0" stroke-width="2" d="M184.3882,-71.8314C191.253,-63.454 199.5301,-53.3531 207.0511,-44.1749"/>
<polygon fill="#c0c0c0" stroke="#c0c0c0" stroke-width="2" points="209.7803,-46.3665 213.4114,-36.4133 204.3659,-41.9297 209.7803,-46.3665"/>
</g>
<!-- 3 -->
<g id="node4" class="node">
<title>3</title>
<path fill="none" stroke="#d6d856" stroke-width="2" d="M327,-108C327,-108 250,-108 250,-108 244,-108 238,-102 238,-96 238,-96 238,-84 238,-84 238,-78 244,-72 250,-72 250,-72 327,-72 327,-72 333,-72 339,-78 339,-84 339,-84 339,-96 339,-96 339,-102 333,-108 327,-108"/>
<text text-anchor="middle" x="288.5" y="-87.5" font-family="sans" font-size="10.00" fill="#000000">get_context_data</text>
</g>
<!-- 3&#45;&gt;0 -->
<g id="edge3" class="edge">
<title>3&#45;&gt;0</title>
<path fill="none" stroke="#c0c0c0" stroke-width="2" d="M273.3595,-71.8314C266.3783,-63.454 257.9609,-53.3531 250.3124,-44.1749"/>
<polygon fill="#c0c0c0" stroke="#c0c0c0" stroke-width="2" points="252.9351,-41.8548 243.8444,-36.4133 247.5575,-46.3362 252.9351,-41.8548"/>
</g>
<!-- 4 -->
<g id="node5" class="node">
<title>4</title>
<path fill="none" stroke="#d6d856" stroke-width="2" d="M446,-108C446,-108 369,-108 369,-108 363,-108 357,-102 357,-96 357,-96 357,-84 357,-84 357,-78 363,-72 369,-72 369,-72 446,-72 446,-72 452,-72 458,-78 458,-84 458,-84 458,-96 458,-96 458,-102 452,-108 446,-108"/>
<text text-anchor="middle" x="407.5" y="-87.5" font-family="sans" font-size="10.00" fill="#000000">get_context_data</text>
</g>
<!-- 4&#45;&gt;0 -->
<g id="edge4" class="edge">
<title>4&#45;&gt;0</title>
<path fill="none" stroke="#c0c0c0" stroke-width="2" d="M362.3307,-71.8314C332.2209,-59.7201 293.1556,-44.0067 265.0128,-32.6867"/>
<polygon fill="#c0c0c0" stroke="#c0c0c0" stroke-width="2" points="266.1303,-29.3637 255.5465,-28.879 263.518,-35.858 266.1303,-29.3637"/>
</g>
<!-- 5 -->
<g id="node6" class="node">
<title>5</title>
<path fill="none" stroke="#d85656" stroke-width="2" d="M65.5,-180C65.5,-180 35.5,-180 35.5,-180 29.5,-180 23.5,-174 23.5,-168 23.5,-168 23.5,-156 23.5,-156 23.5,-150 29.5,-144 35.5,-144 35.5,-144 65.5,-144 65.5,-144 71.5,-144 77.5,-150 77.5,-156 77.5,-156 77.5,-168 77.5,-168 77.5,-174 71.5,-180 65.5,-180"/>
<text text-anchor="middle" x="50.5" y="-159.5" font-family="sans" font-size="10.00" fill="#000000">filter</text>
</g>
<!-- 5&#45;&gt;1 -->
<g id="edge5" class="edge">
<title>5&#45;&gt;1</title>
<path fill="none" stroke="#c0c0c0" stroke-width="2" d="M50.5,-143.8314C50.5,-136.131 50.5,-126.9743 50.5,-118.4166"/>
<polygon fill="#c0c0c0" stroke="#c0c0c0" stroke-width="2" points="54.0001,-118.4132 50.5,-108.4133 47.0001,-118.4133 54.0001,-118.4132"/>
</g>
<!-- 6 -->
<g id="node7" class="node">
<title>6</title>
<path fill="none" stroke="#d85656" stroke-width="2" stroke-dasharray="5,2" d="M184.5,-180C184.5,-180 154.5,-180 154.5,-180 148.5,-180 142.5,-174 142.5,-168 142.5,-168 142.5,-156 142.5,-156 142.5,-150 148.5,-144 154.5,-144 154.5,-144 184.5,-144 184.5,-144 190.5,-144 196.5,-150 196.5,-156 196.5,-156 196.5,-168 196.5,-168 196.5,-174 190.5,-180 184.5,-180"/>
<text text-anchor="middle" x="169.5" y="-159.5" font-family="sans" font-size="10.00" fill="#000000">filter</text>
</g>
<!-- 6&#45;&gt;2 -->
<g id="edge6" class="edge">
<title>6&#45;&gt;2</title>
<path fill="none" stroke="#c0c0c0" stroke-width="2" d="M169.5,-143.8314C169.5,-136.131 169.5,-126.9743 169.5,-118.4166"/>
<polygon fill="#c0c0c0" stroke="#c0c0c0" stroke-width="2" points="173.0001,-118.4132 169.5,-108.4133 166.0001,-118.4133 173.0001,-118.4132"/>
</g>
<!-- 7 -->
<g id="node8" class="node">
<title>7</title>
<path fill="none" stroke="#d85656" stroke-width="2" d="M303.5,-180C303.5,-180 273.5,-180 273.5,-180 267.5,-180 261.5,-174 261.5,-168 261.5,-168 261.5,-156 261.5,-156 261.5,-150 267.5,-144 273.5,-144 273.5,-144 303.5,-144 303.5,-144 309.5,-144 315.5,-150 315.5,-156 315.5,-156 315.5,-168 315.5,-168 315.5,-174 309.5,-180 303.5,-180"/>
<text text-anchor="middle" x="288.5" y="-159.5" font-family="sans" font-size="10.00" fill="#000000">filter</text>
</g>
<!-- 7&#45;&gt;3 -->
<g id="edge7" class="edge">
<title>7&#45;&gt;3</title>
<path fill="none" stroke="#c0c0c0" stroke-width="2" d="M288.5,-143.8314C288.5,-136.131 288.5,-126.9743 288.5,-118.4166"/>
<polygon fill="#c0c0c0" stroke="#c0c0c0" stroke-width="2" points="292.0001,-118.4132 288.5,-108.4133 285.0001,-118.4133 292.0001,-118.4132"/>
</g>
<!-- 8 -->
<g id="node9" class="node">
<title>8</title>
<path fill="none" stroke="#d85656" stroke-width="2" d="M422.5,-180C422.5,-180 392.5,-180 392.5,-180 386.5,-180 380.5,-174 380.5,-168 380.5,-168 380.5,-156 380.5,-156 380.5,-150 386.5,-144 392.5,-144 392.5,-144 422.5,-144 422.5,-144 428.5,-144 434.5,-150 434.5,-156 434.5,-156 434.5,-168 434.5,-168 434.5,-174 428.5,-180 422.5,-180"/>
<text text-anchor="middle" x="407.5" y="-159.5" font-family="sans" font-size="10.00" fill="#000000">filter</text>
</g>
<!-- 8&#45;&gt;4 -->
<g id="edge8" class="edge">
<title>8&#45;&gt;4</title>
<path fill="none" stroke="#c0c0c0" stroke-width="2" d="M407.5,-143.8314C407.5,-136.131 407.5,-126.9743 407.5,-118.4166"/>
<polygon fill="#c0c0c0" stroke="#c0c0c0" stroke-width="2" points="411.0001,-118.4132 407.5,-108.4133 404.0001,-118.4133 411.0001,-118.4132"/>
</g>
<!-- 9 -->
<g id="node10" class="node">
<title>9</title>
<path fill="none" stroke="#56d8d8" stroke-width="2" stroke-dasharray="5,2" d="M86,-252C86,-252 15,-252 15,-252 9,-252 3,-246 3,-240 3,-240 3,-228 3,-228 3,-222 9,-216 15,-216 15,-216 86,-216 86,-216 92,-216 98,-222 98,-228 98,-228 98,-240 98,-240 98,-246 92,-252 86,-252"/>
<text text-anchor="middle" x="50.5" y="-237" font-family="sans" font-size="10.00" fill="#000000">fetch_structures</text>
<text text-anchor="middle" x="50.5" y="-226" font-family="sans" font-size="10.00" fill="#000000">halide: BR</text>
</g>
<!-- 9&#45;&gt;5 -->
<g id="edge9" class="edge">
<title>9&#45;&gt;5</title>
<path fill="none" stroke="#c0c0c0" stroke-width="2" d="M50.5,-215.8314C50.5,-208.131 50.5,-198.9743 50.5,-190.4166"/>
<polygon fill="#c0c0c0" stroke="#c0c0c0" stroke-width="2" points="54.0001,-190.4132 50.5,-180.4133 47.0001,-190.4133 54.0001,-190.4132"/>
</g>
<!-- 10 -->
<g id="node11" class="node">
<title>10</title>
<path fill="none" stroke="#56d8d8" stroke-width="2" stroke-dasharray="5,2" d="M205,-252C205,-252 134,-252 134,-252 128,-252 122,-246 122,-240 122,-240 122,-228 122,-228 122,-222 128,-216 134,-216 134,-216 205,-216 205,-216 211,-216 217,-222 217,-228 217,-228 217,-240 217,-240 217,-246 211,-252 205,-252"/>
<text text-anchor="middle" x="169.5" y="-237" font-family="sans" font-size="10.00" fill="#000000">fetch_structures</text>
<text text-anchor="middle" x="169.5" y="-226" font-family="sans" font-size="10.00" fill="#000000">halide: CL</text>
</g>
<!-- 10&#45;&gt;6 -->
<g id="edge10" class="edge">
<title>10&#45;&gt;6</title>
<path fill="none" stroke="#c0c0c0" stroke-width="2" d="M169.5,-215.8314C169.5,-208.131 169.5,-198.9743 169.5,-190.4166"/>
<polygon fill="#c0c0c0" stroke="#c0c0c0" stroke-width="2" points="173.0001,-190.4132 169.5,-180.4133 166.0001,-190.4133 173.0001,-190.4132"/>
</g>
<!-- 11 -->
<g id="node12" class="node">
<title>11</title>
<path fill="none" stroke="#56d8d8" stroke-width="2" stroke-dasharray="5,2" d="M324,-252C324,-252 253,-252 253,-252 247,-252 241,-246 241,-240 241,-240 241,-228 241,-228 241,-222 247,-216 253,-216 253,-216 324,-216 324,-216 330,-216 336,-222 336,-228 336,-228 336,-240 336,-240 336,-246 330,-252 324,-252"/>
<text text-anchor="middle" x="288.5" y="-237" font-family="sans" font-size="10.00" fill="#000000">fetch_structures</text>
<text text-anchor="middle" x="288.5" y="-226" font-family="sans" font-size="10.00" fill="#000000">halide: F</text>
</g>
<!-- 11&#45;&gt;7 -->
<g id="edge11" class="edge">
<title>11&#45;&gt;7</title>
<path fill="none" stroke="#c0c0c0" stroke-width="2" d="M288.5,-215.8314C288.5,-208.131 288.5,-198.9743 288.5,-190.4166"/>
<polygon fill="#c0c0c0" stroke="#c0c0c0" stroke-width="2" points="292.0001,-190.4132 288.5,-180.4133 285.0001,-190.4133 292.0001,-190.4132"/>
</g>
<!-- 12 -->
<g id="node13" class="node">
<title>12</title>
<path fill="none" stroke="#56d8d8" stroke-width="2" stroke-dasharray="5,2" d="M443,-252C443,-252 372,-252 372,-252 366,-252 360,-246 360,-240 360,-240 360,-228 360,-228 360,-222 366,-216 372,-216 372,-216 443,-216 443,-216 449,-216 455,-222 455,-228 455,-228 455,-240 455,-240 455,-246 449,-252 443,-252"/>
<text text-anchor="middle" x="407.5" y="-237" font-family="sans" font-size="10.00" fill="#000000">fetch_structures</text>
<text text-anchor="middle" x="407.5" y="-226" font-family="sans" font-size="10.00" fill="#000000">halide: I</text>
</g>
<!-- 12&#45;&gt;8 -->
<g id="edge12" class="edge">
<title>12&#45;&gt;8</title>
<path fill="none" stroke="#c0c0c0" stroke-width="2" d="M407.5,-215.8314C407.5,-208.131 407.5,-198.9743 407.5,-190.4166"/>
<polygon fill="#c0c0c0" stroke="#c0c0c0" stroke-width="2" points="411.0001,-190.4132 407.5,-180.4133 404.0001,-190.4133 411.0001,-190.4132"/>
</g>
</g>
</svg>
