<?xml version="1.0" encoding="UTF-8" standalone="no"?>
<!DOCTYPE svg PUBLIC "-//W3C//DTD SVG 1.1//EN"
 "http://www.w3.org/Graphics/SVG/1.1/DTD/svg11.dtd">
<!-- Generated by graphviz version 2.40.1 (20161225.0304)
 -->
<!-- Title: snakemake_dag Pages: 1 -->
<svg width="488pt" height="404pt"
 viewBox="0.00 0.00 487.50 404.00" xmlns="http://www.w3.org/2000/svg" xmlns:xlink="http://www.w3.org/1999/xlink">
<g id="graph0" class="graph" transform="scale(1 1) rotate(0) translate(4 400)">
<title>snakemake_dag</title>
<polygon fill="#ffffff" stroke="transparent" points="-4,4 -4,-400 483.5,-400 483.5,4 -4,4"/>
<!-- 0 -->
<g id="node1" class="node">
<title>0</title>
<path fill="none" stroke="#afd856" stroke-width="2" stroke-dasharray="5,2" d="M243.5,-36C243.5,-36 213.5,-36 213.5,-36 207.5,-36 201.5,-30 201.5,-24 201.5,-24 201.5,-12 201.5,-12 201.5,-6 207.5,0 213.5,0 213.5,0 243.5,0 243.5,0 249.5,0 255.5,-6 255.5,-12 255.5,-12 255.5,-24 255.5,-24 255.5,-30 249.5,-36 243.5,-36"/>
<text text-anchor="middle" x="228.5" y="-15.5" font-family="sans" font-size="10.00" fill="#000000">all</text>
</g>
<!-- 1 -->
<g id="node2" class="node">
<title>1</title>
<path fill="none" stroke="#d8ac56" stroke-width="2" stroke-dasharray="5,2" d="M262.5,-108C262.5,-108 194.5,-108 194.5,-108 188.5,-108 182.5,-102 182.5,-96 182.5,-96 182.5,-84 182.5,-84 182.5,-78 188.5,-72 194.5,-72 194.5,-72 262.5,-72 262.5,-72 268.5,-72 274.5,-78 274.5,-84 274.5,-84 274.5,-96 274.5,-96 274.5,-102 268.5,-108 262.5,-108"/>
<text text-anchor="middle" x="228.5" y="-87.5" font-family="sans" font-size="10.00" fill="#000000">figures_plotting</text>
</g>
<!-- 1&#45;&gt;0 -->
<g id="edge1" class="edge">
<title>1&#45;&gt;0</title>
<path fill="none" stroke="#c0c0c0" stroke-width="2" d="M228.5,-71.8314C228.5,-64.131 228.5,-54.9743 228.5,-46.4166"/>
<polygon fill="#c0c0c0" stroke="#c0c0c0" stroke-width="2" points="232.0001,-46.4132 228.5,-36.4133 225.0001,-46.4133 232.0001,-46.4132"/>
</g>
<!-- 2 -->
<g id="node3" class="node">
<title>2</title>
<path fill="none" stroke="#56d8a9" stroke-width="2" stroke-dasharray="5,2" d="M272.5,-180C272.5,-180 184.5,-180 184.5,-180 178.5,-180 172.5,-174 172.5,-168 172.5,-168 172.5,-156 172.5,-156 172.5,-150 178.5,-144 184.5,-144 184.5,-144 272.5,-144 272.5,-144 278.5,-144 284.5,-150 284.5,-156 284.5,-156 284.5,-168 284.5,-168 284.5,-174 278.5,-180 272.5,-180"/>
<text text-anchor="middle" x="228.5" y="-159.5" font-family="sans" font-size="10.00" fill="#000000">combine_final_data</text>
</g>
<!-- 2&#45;&gt;1 -->
<g id="edge2" class="edge">
<title>2&#45;&gt;1</title>
<path fill="none" stroke="#c0c0c0" stroke-width="2" d="M228.5,-143.8314C228.5,-136.131 228.5,-126.9743 228.5,-118.4166"/>
<polygon fill="#c0c0c0" stroke="#c0c0c0" stroke-width="2" points="232.0001,-118.4132 228.5,-108.4133 225.0001,-118.4133 232.0001,-118.4132"/>
</g>
<!-- 3 -->
<g id="node4" class="node">
<title>3</title>
<path fill="none" stroke="#d85656" stroke-width="2" stroke-dasharray="5,2" d="M89,-252C89,-252 12,-252 12,-252 6,-252 0,-246 0,-240 0,-240 0,-228 0,-228 0,-222 6,-216 12,-216 12,-216 89,-216 89,-216 95,-216 101,-222 101,-228 101,-228 101,-240 101,-240 101,-246 95,-252 89,-252"/>
<text text-anchor="middle" x="50.5" y="-231.5" font-family="sans" font-size="10.00" fill="#000000">get_context_data</text>
</g>
<!-- 3&#45;&gt;2 -->
<g id="edge3" class="edge">
<title>3&#45;&gt;2</title>
<path fill="none" stroke="#c0c0c0" stroke-width="2" d="M95.4169,-215.8314C119.435,-206.1162 149.1834,-194.0831 174.4592,-183.8592"/>
<polygon fill="#c0c0c0" stroke="#c0c0c0" stroke-width="2" points="175.9482,-187.0325 183.9061,-180.038 173.3233,-180.5432 175.9482,-187.0325"/>
</g>
<!-- 4 -->
<g id="node5" class="node">
<title>4</title>
<path fill="none" stroke="#d85656" stroke-width="2" stroke-dasharray="5,2" d="M208,-252C208,-252 131,-252 131,-252 125,-252 119,-246 119,-240 119,-240 119,-228 119,-228 119,-222 125,-216 131,-216 131,-216 208,-216 208,-216 214,-216 220,-222 220,-228 220,-228 220,-240 220,-240 220,-246 214,-252 208,-252"/>
<text text-anchor="middle" x="169.5" y="-231.5" font-family="sans" font-size="10.00" fill="#000000">get_context_data</text>
</g>
<!-- 4&#45;&gt;2 -->
<g id="edge4" class="edge">
<title>4&#45;&gt;2</title>
<path fill="none" stroke="#c0c0c0" stroke-width="2" d="M184.3882,-215.8314C191.253,-207.454 199.5301,-197.3531 207.0511,-188.1749"/>
<polygon fill="#c0c0c0" stroke="#c0c0c0" stroke-width="2" points="209.7803,-190.3665 213.4114,-180.4133 204.3659,-185.9297 209.7803,-190.3665"/>
</g>
<!-- 5 -->
<g id="node6" class="node">
<title>5</title>
<path fill="none" stroke="#d85656" stroke-width="2" stroke-dasharray="5,2" d="M327,-252C327,-252 250,-252 250,-252 244,-252 238,-246 238,-240 238,-240 238,-228 238,-228 238,-222 244,-216 250,-216 250,-216 327,-216 327,-216 333,-216 339,-222 339,-228 339,-228 339,-240 339,-240 339,-246 333,-252 327,-252"/>
<text text-anchor="middle" x="288.5" y="-231.5" font-family="sans" font-size="10.00" fill="#000000">get_context_data</text>
</g>
<!-- 5&#45;&gt;2 -->
<g id="edge5" class="edge">
<title>5&#45;&gt;2</title>
<path fill="none" stroke="#c0c0c0" stroke-width="2" d="M273.3595,-215.8314C266.3783,-207.454 257.9609,-197.3531 250.3124,-188.1749"/>
<polygon fill="#c0c0c0" stroke="#c0c0c0" stroke-width="2" points="252.9351,-185.8548 243.8444,-180.4133 247.5575,-190.3362 252.9351,-185.8548"/>
</g>
<!-- 6 -->
<g id="node7" class="node">
<title>6</title>
<path fill="none" stroke="#d85656" stroke-width="2" stroke-dasharray="5,2" d="M446,-252C446,-252 369,-252 369,-252 363,-252 357,-246 357,-240 357,-240 357,-228 357,-228 357,-222 363,-216 369,-216 369,-216 446,-216 446,-216 452,-216 458,-222 458,-228 458,-228 458,-240 458,-240 458,-246 452,-252 446,-252"/>
<text text-anchor="middle" x="407.5" y="-231.5" font-family="sans" font-size="10.00" fill="#000000">get_context_data</text>
</g>
<!-- 6&#45;&gt;2 -->
<g id="edge6" class="edge">
<title>6&#45;&gt;2</title>
<path fill="none" stroke="#c0c0c0" stroke-width="2" d="M362.3307,-215.8314C338.1777,-206.1162 308.2622,-194.0831 282.8444,-183.8592"/>
<polygon fill="#c0c0c0" stroke="#c0c0c0" stroke-width="2" points="283.9282,-180.5227 273.3444,-180.038 281.3159,-187.017 283.9282,-180.5227"/>
</g>
<!-- 7 -->
<g id="node8" class="node">
<title>7</title>
<path fill="none" stroke="#56a9d8" stroke-width="2" stroke-dasharray="5,2" d="M95,-396C95,-396 24,-396 24,-396 18,-396 12,-390 12,-384 12,-384 12,-372 12,-372 12,-366 18,-360 24,-360 24,-360 95,-360 95,-360 101,-360 107,-366 107,-372 107,-372 107,-384 107,-384 107,-390 101,-396 95,-396"/>
<text text-anchor="middle" x="59.5" y="-381" font-family="sans" font-size="10.00" fill="#000000">fetch_structures</text>
<text text-anchor="middle" x="59.5" y="-370" font-family="sans" font-size="10.00" fill="#000000">halide: BR</text>
</g>
<!-- 7&#45;&gt;3 -->
<g id="edge7" class="edge">
<title>7&#45;&gt;3</title>
<path fill="none" stroke="#c0c0c0" stroke-width="2" d="M58.0458,-359.5115C57.247,-349.0862 56.266,-335.8201 55.5,-324 54.1674,-303.4377 52.8829,-280.2181 51.9495,-262.5146"/>
<polygon fill="#c0c0c0" stroke="#c0c0c0" stroke-width="2" points="55.4318,-262.0819 51.4165,-252.2775 48.4413,-262.446 55.4318,-262.0819"/>
</g>
<!-- 8 -->
<g id="node9" class="node">
<title>8</title>
<path fill="none" stroke="#59d856" stroke-width="2" stroke-dasharray="5,2" d="M106.5,-324C106.5,-324 76.5,-324 76.5,-324 70.5,-324 64.5,-318 64.5,-312 64.5,-312 64.5,-300 64.5,-300 64.5,-294 70.5,-288 76.5,-288 76.5,-288 106.5,-288 106.5,-288 112.5,-288 118.5,-294 118.5,-300 118.5,-300 118.5,-312 118.5,-312 118.5,-318 112.5,-324 106.5,-324"/>
<text text-anchor="middle" x="91.5" y="-303.5" font-family="sans" font-size="10.00" fill="#000000">filter</text>
</g>
<!-- 7&#45;&gt;8 -->
<g id="edge15" class="edge">
<title>7&#45;&gt;8</title>
<path fill="none" stroke="#c0c0c0" stroke-width="2" d="M67.575,-359.8314C71.1102,-351.8771 75.336,-342.369 79.2456,-333.5723"/>
<polygon fill="#c0c0c0" stroke="#c0c0c0" stroke-width="2" points="82.4532,-334.9729 83.3163,-324.4133 76.0565,-332.1299 82.4532,-334.9729"/>
</g>
<!-- 8&#45;&gt;3 -->
<g id="edge8" class="edge">
<title>8&#45;&gt;3</title>
<path fill="none" stroke="#c0c0c0" stroke-width="2" d="M81.154,-287.8314C76.5763,-279.7925 71.0948,-270.1666 66.0412,-261.2918"/>
<polygon fill="#c0c0c0" stroke="#c0c0c0" stroke-width="2" points="68.9752,-259.3712 60.9853,-252.4133 62.8923,-262.8351 68.9752,-259.3712"/>
</g>
<!-- 9 -->
<g id="node10" class="node">
<title>9</title>
<path fill="none" stroke="#56a9d8" stroke-width="2" stroke-dasharray="5,2" d="M219,-396C219,-396 148,-396 148,-396 142,-396 136,-390 136,-384 136,-384 136,-372 136,-372 136,-366 142,-360 148,-360 148,-360 219,-360 219,-360 225,-360 231,-366 231,-372 231,-372 231,-384 231,-384 231,-390 225,-396 219,-396"/>
<text text-anchor="middle" x="183.5" y="-381" font-family="sans" font-size="10.00" fill="#000000">fetch_structures</text>
<text text-anchor="middle" x="183.5" y="-370" font-family="sans" font-size="10.00" fill="#000000">halide: CL</text>
</g>
<!-- 9&#45;&gt;4 -->
<g id="edge9" class="edge">
<title>9&#45;&gt;4</title>
<path fill="none" stroke="#c0c0c0" stroke-width="2" d="M180.8679,-359.533C179.4428,-349.1144 177.7279,-335.8479 176.5,-324 174.3728,-303.4741 172.582,-280.2535 171.3443,-262.5403"/>
<polygon fill="#c0c0c0" stroke="#c0c0c0" stroke-width="2" points="174.8181,-262.0356 170.647,-252.2964 167.8343,-262.511 174.8181,-262.0356"/>
</g>
<!-- 10 -->
<g id="node11" class="node">
<title>10</title>
<path fill="none" stroke="#59d856" stroke-width="2" stroke-dasharray="5,2" d="M227.5,-324C227.5,-324 197.5,-324 197.5,-324 191.5,-324 185.5,-318 185.5,-312 185.5,-312 185.5,-300 185.5,-300 185.5,-294 191.5,-288 197.5,-288 197.5,-288 227.5,-288 227.5,-288 233.5,-288 239.5,-294 239.5,-300 239.5,-300 239.5,-312 239.5,-312 239.5,-318 233.5,-324 227.5,-324"/>
<text text-anchor="middle" x="212.5" y="-303.5" font-family="sans" font-size="10.00" fill="#000000">filter</text>
</g>
<!-- 9&#45;&gt;10 -->
<g id="edge16" class="edge">
<title>9&#45;&gt;10</title>
<path fill="none" stroke="#c0c0c0" stroke-width="2" d="M190.8179,-359.8314C193.9876,-351.9617 197.77,-342.5712 201.2813,-333.8533"/>
<polygon fill="#c0c0c0" stroke="#c0c0c0" stroke-width="2" points="204.5939,-334.9968 205.0835,-324.4133 198.1008,-332.3815 204.5939,-334.9968"/>
</g>
<!-- 10&#45;&gt;4 -->
<g id="edge10" class="edge">
<title>10&#45;&gt;4</title>
<path fill="none" stroke="#c0c0c0" stroke-width="2" d="M201.6493,-287.8314C196.7977,-279.7079 190.9783,-269.9637 185.632,-261.0118"/>
<polygon fill="#c0c0c0" stroke="#c0c0c0" stroke-width="2" points="188.6292,-259.2041 180.4968,-252.4133 182.6194,-262.7933 188.6292,-259.2041"/>
</g>
<!-- 11 -->
<g id="node12" class="node">
<title>11</title>
<path fill="none" stroke="#56a9d8" stroke-width="2" stroke-dasharray="5,2" d="M338,-396C338,-396 267,-396 267,-396 261,-396 255,-390 255,-384 255,-384 255,-372 255,-372 255,-366 261,-360 267,-360 267,-360 338,-360 338,-360 344,-360 350,-366 350,-372 350,-372 350,-384 350,-384 350,-390 344,-396 338,-396"/>
<text text-anchor="middle" x="302.5" y="-381" font-family="sans" font-size="10.00" fill="#000000">fetch_structures</text>
<text text-anchor="middle" x="302.5" y="-370" font-family="sans" font-size="10.00" fill="#000000">halide: F</text>
</g>
<!-- 11&#45;&gt;5 -->
<g id="edge11" class="edge">
<title>11&#45;&gt;5</title>
<path fill="none" stroke="#c0c0c0" stroke-width="2" d="M300.3445,-359.5162C299.1544,-349.0924 297.6825,-335.8262 296.5,-324 294.445,-303.4476 292.3876,-280.2278 290.8738,-262.5216"/>
<polygon fill="#c0c0c0" stroke="#c0c0c0" stroke-width="2" points="294.3382,-261.9515 290.0065,-252.2826 287.3632,-262.5424 294.3382,-261.9515"/>
</g>
<!-- 12 -->
<g id="node13" class="node">
<title>12</title>
<path fill="none" stroke="#59d856" stroke-width="2" stroke-dasharray="5,2" d="M347.5,-324C347.5,-324 317.5,-324 317.5,-324 311.5,-324 305.5,-318 305.5,-312 305.5,-312 305.5,-300 305.5,-300 305.5,-294 311.5,-288 317.5,-288 317.5,-288 347.5,-288 347.5,-288 353.5,-288 359.5,-294 359.5,-300 359.5,-300 359.5,-312 359.5,-312 359.5,-318 353.5,-324 347.5,-324"/>
<text text-anchor="middle" x="332.5" y="-303.5" font-family="sans" font-size="10.00" fill="#000000">filter</text>
</g>
<!-- 11&#45;&gt;12 -->
<g id="edge17" class="edge">
<title>11&#45;&gt;12</title>
<path fill="none" stroke="#c0c0c0" stroke-width="2" d="M310.0703,-359.8314C313.3493,-351.9617 317.262,-342.5712 320.8945,-333.8533"/>
<polygon fill="#c0c0c0" stroke="#c0c0c0" stroke-width="2" points="324.2124,-334.9902 324.8278,-324.4133 317.7508,-332.2979 324.2124,-334.9902"/>
</g>
<!-- 12&#45;&gt;5 -->
<g id="edge12" class="edge">
<title>12&#45;&gt;5</title>
<path fill="none" stroke="#c0c0c0" stroke-width="2" d="M321.3969,-287.8314C316.4326,-279.7079 310.4778,-269.9637 305.0072,-261.0118"/>
<polygon fill="#c0c0c0" stroke="#c0c0c0" stroke-width="2" points="307.9536,-259.121 299.7526,-252.4133 301.9806,-262.7712 307.9536,-259.121"/>
</g>
<!-- 13 -->
<g id="node14" class="node">
<title>13</title>
<path fill="none" stroke="#56a9d8" stroke-width="2" stroke-dasharray="5,2" d="M454,-396C454,-396 383,-396 383,-396 377,-396 371,-390 371,-384 371,-384 371,-372 371,-372 371,-366 377,-360 383,-360 383,-360 454,-360 454,-360 460,-360 466,-366 466,-372 466,-372 466,-384 466,-384 466,-390 460,-396 454,-396"/>
<text text-anchor="middle" x="418.5" y="-381" font-family="sans" font-size="10.00" fill="#000000">fetch_structures</text>
<text text-anchor="middle" x="418.5" y="-370" font-family="sans" font-size="10.00" fill="#000000">halide: I</text>
</g>
<!-- 13&#45;&gt;6 -->
<g id="edge13" class="edge">
<title>13&#45;&gt;6</title>
<path fill="none" stroke="#c0c0c0" stroke-width="2" d="M417.1068,-359.7623C415.2306,-335.201 411.8731,-291.2474 409.6659,-262.3541"/>
<polygon fill="#c0c0c0" stroke="#c0c0c0" stroke-width="2" points="413.1334,-261.794 408.8818,-252.0896 406.1538,-262.3272 413.1334,-261.794"/>
</g>
<!-- 14 -->
<g id="node15" class="node">
<title>14</title>
<path fill="none" stroke="#59d856" stroke-width="2" stroke-dasharray="5,2" d="M467.5,-324C467.5,-324 437.5,-324 437.5,-324 431.5,-324 425.5,-318 425.5,-312 425.5,-312 425.5,-300 425.5,-300 425.5,-294 431.5,-288 437.5,-288 437.5,-288 467.5,-288 467.5,-288 473.5,-288 479.5,-294 479.5,-300 479.5,-300 479.5,-312 479.5,-312 479.5,-318 473.5,-324 467.5,-324"/>
<text text-anchor="middle" x="452.5" y="-303.5" font-family="sans" font-size="10.00" fill="#000000">filter</text>
</g>
<!-- 13&#45;&gt;14 -->
<g id="edge18" class="edge">
<title>13&#45;&gt;14</title>
<path fill="none" stroke="#c0c0c0" stroke-width="2" d="M427.0796,-359.8314C430.8358,-351.8771 435.3257,-342.369 439.4798,-333.5723"/>
<polygon fill="#c0c0c0" stroke="#c0c0c0" stroke-width="2" points="442.6996,-334.9503 443.8048,-324.4133 436.3699,-331.9612 442.6996,-334.9503"/>
</g>
<!-- 14&#45;&gt;6 -->
<g id="edge14" class="edge">
<title>14&#45;&gt;6</title>
<path fill="none" stroke="#c0c0c0" stroke-width="2" d="M441.1446,-287.8314C436.0674,-279.7079 429.9773,-269.9637 424.3824,-261.0118"/>
<polygon fill="#c0c0c0" stroke="#c0c0c0" stroke-width="2" points="427.2763,-259.0383 419.0083,-252.4133 421.3403,-262.7483 427.2763,-259.0383"/>
</g>
</g>
</svg>
