<?xml version="1.0" encoding="UTF-8" standalone="no"?>
<!DOCTYPE svg PUBLIC "-//W3C//DTD SVG 1.1//EN"
 "http://www.w3.org/Graphics/SVG/1.1/DTD/svg11.dtd">
<!-- Generated by graphviz version 2.40.1 (20161225.0304)
 -->
<!-- Title: snakemake_dag Pages: 1 -->
<svg width="488pt" height="332pt"
 viewBox="0.00 0.00 487.50 332.00" xmlns="http://www.w3.org/2000/svg" xmlns:xlink="http://www.w3.org/1999/xlink">
<g id="graph0" class="graph" transform="scale(1 1) rotate(0) translate(4 328)">
<title>snakemake_dag</title>
<polygon fill="#ffffff" stroke="transparent" points="-4,4 -4,-328 483.5,-328 483.5,4 -4,4"/>
<!-- 0 -->
<g id="node1" class="node">
<title>0</title>
<path fill="none" stroke="#d8bc56" stroke-width="2" stroke-dasharray="5,2" d="M243.5,-36C243.5,-36 213.5,-36 213.5,-36 207.5,-36 201.5,-30 201.5,-24 201.5,-24 201.5,-12 201.5,-12 201.5,-6 207.5,0 213.5,0 213.5,0 243.5,0 243.5,0 249.5,0 255.5,-6 255.5,-12 255.5,-12 255.5,-24 255.5,-24 255.5,-30 249.5,-36 243.5,-36"/>
<text text-anchor="middle" x="228.5" y="-15.5" font-family="sans" font-size="10.00" fill="#000000">all</text>
</g>
<!-- 1 -->
<g id="node2" class="node">
<title>1</title>
<path fill="none" stroke="#56c1d8" stroke-width="2" stroke-dasharray="5,2" d="M273,-108C273,-108 184,-108 184,-108 178,-108 172,-102 172,-96 172,-96 172,-84 172,-84 172,-78 178,-72 184,-72 184,-72 273,-72 273,-72 279,-72 285,-78 285,-84 285,-84 285,-96 285,-96 285,-102 279,-108 273,-108"/>
<text text-anchor="middle" x="228.5" y="-87.5" font-family="sans" font-size="10.00" fill="#000000">combine_final_data</text>
</g>
<!-- 1&#45;&gt;0 -->
<g id="edge1" class="edge">
<title>1&#45;&gt;0</title>
<path fill="none" stroke="#c0c0c0" stroke-width="2" d="M228.5,-71.8314C228.5,-64.131 228.5,-54.9743 228.5,-46.4166"/>
<polygon fill="#c0c0c0" stroke="#c0c0c0" stroke-width="2" points="232.0001,-46.4132 228.5,-36.4133 225.0001,-46.4133 232.0001,-46.4132"/>
</g>
<!-- 2 -->
<g id="node3" class="node">
<title>2</title>
<path fill="none" stroke="#56d88a" stroke-width="2" stroke-dasharray="5,2" d="M89,-180C89,-180 12,-180 12,-180 6,-180 0,-174 0,-168 0,-168 0,-156 0,-156 0,-150 6,-144 12,-144 12,-144 89,-144 89,-144 95,-144 101,-150 101,-156 101,-156 101,-168 101,-168 101,-174 95,-180 89,-180"/>
<text text-anchor="middle" x="50.5" y="-159.5" font-family="sans" font-size="10.00" fill="#000000">get_context_data</text>
</g>
<!-- 2&#45;&gt;1 -->
<g id="edge2" class="edge">
<title>2&#45;&gt;1</title>
<path fill="none" stroke="#c0c0c0" stroke-width="2" d="M95.4169,-143.8314C119.435,-134.1162 149.1834,-122.0831 174.4592,-111.8592"/>
<polygon fill="#c0c0c0" stroke="#c0c0c0" stroke-width="2" points="175.9482,-115.0325 183.9061,-108.038 173.3233,-108.5432 175.9482,-115.0325"/>
</g>
<!-- 3 -->
<g id="node4" class="node">
<title>3</title>
<path fill="none" stroke="#56d88a" stroke-width="2" stroke-dasharray="5,2" d="M208,-180C208,-180 131,-180 131,-180 125,-180 119,-174 119,-168 119,-168 119,-156 119,-156 119,-150 125,-144 131,-144 131,-144 208,-144 208,-144 214,-144 220,-150 220,-156 220,-156 220,-168 220,-168 220,-174 214,-180 208,-180"/>
<text text-anchor="middle" x="169.5" y="-159.5" font-family="sans" font-size="10.00" fill="#000000">get_context_data</text>
</g>
<!-- 3&#45;&gt;1 -->
<g id="edge3" class="edge">
<title>3&#45;&gt;1</title>
<path fill="none" stroke="#c0c0c0" stroke-width="2" d="M184.3882,-143.8314C191.253,-135.454 199.5301,-125.3531 207.0511,-116.1749"/>
<polygon fill="#c0c0c0" stroke="#c0c0c0" stroke-width="2" points="209.7803,-118.3665 213.4114,-108.4133 204.3659,-113.9297 209.7803,-118.3665"/>
</g>
<!-- 4 -->
<g id="node5" class="node">
<title>4</title>
<path fill="none" stroke="#56d88a" stroke-width="2" stroke-dasharray="5,2" d="M327,-180C327,-180 250,-180 250,-180 244,-180 238,-174 238,-168 238,-168 238,-156 238,-156 238,-150 244,-144 250,-144 250,-144 327,-144 327,-144 333,-144 339,-150 339,-156 339,-156 339,-168 339,-168 339,-174 333,-180 327,-180"/>
<text text-anchor="middle" x="288.5" y="-159.5" font-family="sans" font-size="10.00" fill="#000000">get_context_data</text>
</g>
<!-- 4&#45;&gt;1 -->
<g id="edge4" class="edge">
<title>4&#45;&gt;1</title>
<path fill="none" stroke="#c0c0c0" stroke-width="2" d="M273.3595,-143.8314C266.3783,-135.454 257.9609,-125.3531 250.3124,-116.1749"/>
<polygon fill="#c0c0c0" stroke="#c0c0c0" stroke-width="2" points="252.9351,-113.8548 243.8444,-108.4133 247.5575,-118.3362 252.9351,-113.8548"/>
</g>
<!-- 5 -->
<g id="node6" class="node">
<title>5</title>
<path fill="none" stroke="#56d88a" stroke-width="2" stroke-dasharray="5,2" d="M446,-180C446,-180 369,-180 369,-180 363,-180 357,-174 357,-168 357,-168 357,-156 357,-156 357,-150 363,-144 369,-144 369,-144 446,-144 446,-144 452,-144 458,-150 458,-156 458,-156 458,-168 458,-168 458,-174 452,-180 446,-180"/>
<text text-anchor="middle" x="407.5" y="-159.5" font-family="sans" font-size="10.00" fill="#000000">get_context_data</text>
</g>
<!-- 5&#45;&gt;1 -->
<g id="edge5" class="edge">
<title>5&#45;&gt;1</title>
<path fill="none" stroke="#c0c0c0" stroke-width="2" d="M362.3307,-143.8314C338.1777,-134.1162 308.2622,-122.0831 282.8444,-111.8592"/>
<polygon fill="#c0c0c0" stroke="#c0c0c0" stroke-width="2" points="283.9282,-108.5227 273.3444,-108.038 281.3159,-115.017 283.9282,-108.5227"/>
</g>
<!-- 6 -->
<g id="node7" class="node">
<title>6</title>
<path fill="none" stroke="#d85656" stroke-width="2" stroke-dasharray="5,2" d="M95,-324C95,-324 24,-324 24,-324 18,-324 12,-318 12,-312 12,-312 12,-300 12,-300 12,-294 18,-288 24,-288 24,-288 95,-288 95,-288 101,-288 107,-294 107,-300 107,-300 107,-312 107,-312 107,-318 101,-324 95,-324"/>
<text text-anchor="middle" x="59.5" y="-309" font-family="sans" font-size="10.00" fill="#000000">fetch_structures</text>
<text text-anchor="middle" x="59.5" y="-298" font-family="sans" font-size="10.00" fill="#000000">halide: BR</text>
</g>
<!-- 6&#45;&gt;2 -->
<g id="edge6" class="edge">
<title>6&#45;&gt;2</title>
<path fill="none" stroke="#c0c0c0" stroke-width="2" d="M58.0458,-287.5115C57.247,-277.0862 56.266,-263.8201 55.5,-252 54.1674,-231.4377 52.8829,-208.2181 51.9495,-190.5146"/>
<polygon fill="#c0c0c0" stroke="#c0c0c0" stroke-width="2" points="55.4318,-190.0819 51.4165,-180.2775 48.4413,-190.446 55.4318,-190.0819"/>
</g>
<!-- 7 -->
<g id="node8" class="node">
<title>7</title>
<path fill="none" stroke="#88d856" stroke-width="2" stroke-dasharray="5,2" d="M106.5,-252C106.5,-252 76.5,-252 76.5,-252 70.5,-252 64.5,-246 64.5,-240 64.5,-240 64.5,-228 64.5,-228 64.5,-222 70.5,-216 76.5,-216 76.5,-216 106.5,-216 106.5,-216 112.5,-216 118.5,-222 118.5,-228 118.5,-228 118.5,-240 118.5,-240 118.5,-246 112.5,-252 106.5,-252"/>
<text text-anchor="middle" x="91.5" y="-231.5" font-family="sans" font-size="10.00" fill="#000000">filter</text>
</g>
<!-- 6&#45;&gt;7 -->
<g id="edge14" class="edge">
<title>6&#45;&gt;7</title>
<path fill="none" stroke="#c0c0c0" stroke-width="2" d="M67.575,-287.8314C71.1102,-279.8771 75.336,-270.369 79.2456,-261.5723"/>
<polygon fill="#c0c0c0" stroke="#c0c0c0" stroke-width="2" points="82.4532,-262.9729 83.3163,-252.4133 76.0565,-260.1299 82.4532,-262.9729"/>
</g>
<!-- 7&#45;&gt;2 -->
<g id="edge7" class="edge">
<title>7&#45;&gt;2</title>
<path fill="none" stroke="#c0c0c0" stroke-width="2" d="M81.154,-215.8314C76.5763,-207.7925 71.0948,-198.1666 66.0412,-189.2918"/>
<polygon fill="#c0c0c0" stroke="#c0c0c0" stroke-width="2" points="68.9752,-187.3712 60.9853,-180.4133 62.8923,-190.8351 68.9752,-187.3712"/>
</g>
<!-- 8 -->
<g id="node9" class="node">
<title>8</title>
<path fill="none" stroke="#d85656" stroke-width="2" stroke-dasharray="5,2" d="M219,-324C219,-324 148,-324 148,-324 142,-324 136,-318 136,-312 136,-312 136,-300 136,-300 136,-294 142,-288 148,-288 148,-288 219,-288 219,-288 225,-288 231,-294 231,-300 231,-300 231,-312 231,-312 231,-318 225,-324 219,-324"/>
<text text-anchor="middle" x="183.5" y="-309" font-family="sans" font-size="10.00" fill="#000000">fetch_structures</text>
<text text-anchor="middle" x="183.5" y="-298" font-family="sans" font-size="10.00" fill="#000000">halide: CL</text>
</g>
<!-- 8&#45;&gt;3 -->
<g id="edge8" class="edge">
<title>8&#45;&gt;3</title>
<path fill="none" stroke="#c0c0c0" stroke-width="2" d="M180.8679,-287.533C179.4428,-277.1144 177.7279,-263.8479 176.5,-252 174.3728,-231.4741 172.582,-208.2535 171.3443,-190.5403"/>
<polygon fill="#c0c0c0" stroke="#c0c0c0" stroke-width="2" points="174.8181,-190.0356 170.647,-180.2964 167.8343,-190.511 174.8181,-190.0356"/>
</g>
<!-- 9 -->
<g id="node10" class="node">
<title>9</title>
<path fill="none" stroke="#88d856" stroke-width="2" stroke-dasharray="5,2" d="M227.5,-252C227.5,-252 197.5,-252 197.5,-252 191.5,-252 185.5,-246 185.5,-240 185.5,-240 185.5,-228 185.5,-228 185.5,-222 191.5,-216 197.5,-216 197.5,-216 227.5,-216 227.5,-216 233.5,-216 239.5,-222 239.5,-228 239.5,-228 239.5,-240 239.5,-240 239.5,-246 233.5,-252 227.5,-252"/>
<text text-anchor="middle" x="212.5" y="-231.5" font-family="sans" font-size="10.00" fill="#000000">filter</text>
</g>
<!-- 8&#45;&gt;9 -->
<g id="edge15" class="edge">
<title>8&#45;&gt;9</title>
<path fill="none" stroke="#c0c0c0" stroke-width="2" d="M190.8179,-287.8314C193.9876,-279.9617 197.77,-270.5712 201.2813,-261.8533"/>
<polygon fill="#c0c0c0" stroke="#c0c0c0" stroke-width="2" points="204.5939,-262.9968 205.0835,-252.4133 198.1008,-260.3815 204.5939,-262.9968"/>
</g>
<!-- 9&#45;&gt;3 -->
<g id="edge9" class="edge">
<title>9&#45;&gt;3</title>
<path fill="none" stroke="#c0c0c0" stroke-width="2" d="M201.6493,-215.8314C196.7977,-207.7079 190.9783,-197.9637 185.632,-189.0118"/>
<polygon fill="#c0c0c0" stroke="#c0c0c0" stroke-width="2" points="188.6292,-187.2041 180.4968,-180.4133 182.6194,-190.7933 188.6292,-187.2041"/>
</g>
<!-- 10 -->
<g id="node11" class="node">
<title>10</title>
<path fill="none" stroke="#d85656" stroke-width="2" stroke-dasharray="5,2" d="M338,-324C338,-324 267,-324 267,-324 261,-324 255,-318 255,-312 255,-312 255,-300 255,-300 255,-294 261,-288 267,-288 267,-288 338,-288 338,-288 344,-288 350,-294 350,-300 350,-300 350,-312 350,-312 350,-318 344,-324 338,-324"/>
<text text-anchor="middle" x="302.5" y="-309" font-family="sans" font-size="10.00" fill="#000000">fetch_structures</text>
<text text-anchor="middle" x="302.5" y="-298" font-family="sans" font-size="10.00" fill="#000000">halide: F</text>
</g>
<!-- 10&#45;&gt;4 -->
<g id="edge10" class="edge">
<title>10&#45;&gt;4</title>
<path fill="none" stroke="#c0c0c0" stroke-width="2" d="M300.3445,-287.5162C299.1544,-277.0924 297.6825,-263.8262 296.5,-252 294.445,-231.4476 292.3876,-208.2278 290.8738,-190.5216"/>
<polygon fill="#c0c0c0" stroke="#c0c0c0" stroke-width="2" points="294.3382,-189.9515 290.0065,-180.2826 287.3632,-190.5424 294.3382,-189.9515"/>
</g>
<!-- 11 -->
<g id="node12" class="node">
<title>11</title>
<path fill="none" stroke="#88d856" stroke-width="2" stroke-dasharray="5,2" d="M347.5,-252C347.5,-252 317.5,-252 317.5,-252 311.5,-252 305.5,-246 305.5,-240 305.5,-240 305.5,-228 305.5,-228 305.5,-222 311.5,-216 317.5,-216 317.5,-216 347.5,-216 347.5,-216 353.5,-216 359.5,-222 359.5,-228 359.5,-228 359.5,-240 359.5,-240 359.5,-246 353.5,-252 347.5,-252"/>
<text text-anchor="middle" x="332.5" y="-231.5" font-family="sans" font-size="10.00" fill="#000000">filter</text>
</g>
<!-- 10&#45;&gt;11 -->
<g id="edge16" class="edge">
<title>10&#45;&gt;11</title>
<path fill="none" stroke="#c0c0c0" stroke-width="2" d="M310.0703,-287.8314C313.3493,-279.9617 317.262,-270.5712 320.8945,-261.8533"/>
<polygon fill="#c0c0c0" stroke="#c0c0c0" stroke-width="2" points="324.2124,-262.9902 324.8278,-252.4133 317.7508,-260.2979 324.2124,-262.9902"/>
</g>
<!-- 11&#45;&gt;4 -->
<g id="edge11" class="edge">
<title>11&#45;&gt;4</title>
<path fill="none" stroke="#c0c0c0" stroke-width="2" d="M321.3969,-215.8314C316.4326,-207.7079 310.4778,-197.9637 305.0072,-189.0118"/>
<polygon fill="#c0c0c0" stroke="#c0c0c0" stroke-width="2" points="307.9536,-187.121 299.7526,-180.4133 301.9806,-190.7712 307.9536,-187.121"/>
</g>
<!-- 12 -->
<g id="node13" class="node">
<title>12</title>
<path fill="none" stroke="#d85656" stroke-width="2" stroke-dasharray="5,2" d="M454,-324C454,-324 383,-324 383,-324 377,-324 371,-318 371,-312 371,-312 371,-300 371,-300 371,-294 377,-288 383,-288 383,-288 454,-288 454,-288 460,-288 466,-294 466,-300 466,-300 466,-312 466,-312 466,-318 460,-324 454,-324"/>
<text text-anchor="middle" x="418.5" y="-309" font-family="sans" font-size="10.00" fill="#000000">fetch_structures</text>
<text text-anchor="middle" x="418.5" y="-298" font-family="sans" font-size="10.00" fill="#000000">halide: I</text>
</g>
<!-- 12&#45;&gt;5 -->
<g id="edge12" class="edge">
<title>12&#45;&gt;5</title>
<path fill="none" stroke="#c0c0c0" stroke-width="2" d="M417.1068,-287.7623C415.2306,-263.201 411.8731,-219.2474 409.6659,-190.3541"/>
<polygon fill="#c0c0c0" stroke="#c0c0c0" stroke-width="2" points="413.1334,-189.794 408.8818,-180.0896 406.1538,-190.3272 413.1334,-189.794"/>
</g>
<!-- 13 -->
<g id="node14" class="node">
<title>13</title>
<path fill="none" stroke="#88d856" stroke-width="2" stroke-dasharray="5,2" d="M467.5,-252C467.5,-252 437.5,-252 437.5,-252 431.5,-252 425.5,-246 425.5,-240 425.5,-240 425.5,-228 425.5,-228 425.5,-222 431.5,-216 437.5,-216 437.5,-216 467.5,-216 467.5,-216 473.5,-216 479.5,-222 479.5,-228 479.5,-228 479.5,-240 479.5,-240 479.5,-246 473.5,-252 467.5,-252"/>
<text text-anchor="middle" x="452.5" y="-231.5" font-family="sans" font-size="10.00" fill="#000000">filter</text>
</g>
<!-- 12&#45;&gt;13 -->
<g id="edge17" class="edge">
<title>12&#45;&gt;13</title>
<path fill="none" stroke="#c0c0c0" stroke-width="2" d="M427.0796,-287.8314C430.8358,-279.8771 435.3257,-270.369 439.4798,-261.5723"/>
<polygon fill="#c0c0c0" stroke="#c0c0c0" stroke-width="2" points="442.6996,-262.9503 443.8048,-252.4133 436.3699,-259.9612 442.6996,-262.9503"/>
</g>
<!-- 13&#45;&gt;5 -->
<g id="edge13" class="edge">
<title>13&#45;&gt;5</title>
<path fill="none" stroke="#c0c0c0" stroke-width="2" d="M441.1446,-215.8314C436.0674,-207.7079 429.9773,-197.9637 424.3824,-189.0118"/>
<polygon fill="#c0c0c0" stroke="#c0c0c0" stroke-width="2" points="427.2763,-187.0383 419.0083,-180.4133 421.3403,-190.7483 427.2763,-187.0383"/>
</g>
</g>
</svg>
